<svg xmlns="http://www.w3.org/2000/svg" viewBox="0 0 128 128" role="img" aria-labelledby="title desc">
  <title id="title">Astralia</title>
  <desc id="desc">Astralia monogram with orbit and celestial star</desc>
  <defs>
    <radialGradient id="bg" cx="50%" cy="42%" r="62%">
      <stop offset="0%" stop-color="#07152E"/>
      <stop offset="58%" stop-color="#0B1020"/>
      <stop offset="100%" stop-color="#050914"/>
    </radialGradient>
    <linearGradient id="gold" x1="20%" y1="12%" x2="82%" y2="90%">
      <stop offset="0%" stop-color="#F1E2B8"/>
      <stop offset="48%" stop-color="#D8BC84"/>
      <stop offset="100%" stop-color="#9C763E"/>
    </linearGradient>
    <filter id="glow" x="-40%" y="-40%" width="180%" height="180%">
      <feGaussianBlur stdDeviation="2.4" result="blur"/>
      <feColorMatrix in="blur" type="matrix" values="1 0 0 0 0.91 0 1 0 0 0.75 0 0 1 0 0.36 0 0 0 0.55 0"/>
      <feMerge>
        <feMergeNode/>
        <feMergeNode in="SourceGraphic"/>
      </feMerge>
    </filter>
  </defs>
  <circle cx="64" cy="64" r="58" fill="url(#bg)" stroke="#D8BC84" stroke-opacity=".42" stroke-width="2"/>
  <circle cx="64" cy="64" r="43" fill="none" stroke="url(#gold)" stroke-width="1.4" opacity=".58"/>
  <ellipse cx="64" cy="64" rx="44" ry="15" fill="none" stroke="url(#gold)" stroke-width="1.6" opacity=".62" transform="rotate(-18 64 64)"/>
  <ellipse cx="64" cy="64" rx="36" ry="10" fill="none" stroke="#7DA6D9" stroke-width="1" opacity=".22" transform="rotate(17 64 64)"/>
  <path d="M43 92 64 35.5 85 92" fill="none" stroke="url(#gold)" stroke-width="5" stroke-linecap="round" stroke-linejoin="round" filter="url(#glow)"/>
  <path d="M53 72h22" fill="none" stroke="url(#gold)" stroke-width="4" stroke-linecap="round" filter="url(#glow)"/>
  <path d="M64 18.5 67.4 31.7 80 36l-12.6 4.3L64 53.5 60.6 40.3 48 36l12.6-4.3L64 18.5Z" fill="url(#gold)" filter="url(#glow)"/>
  <circle cx="64" cy="94" r="3" fill="#F1E2B8" opacity=".9"/>
  <path d="M31 33c9-9 20.3-13.4 33-13.4S88 24 97 33" fill="none" stroke="#F1E2B8" stroke-width="1.2" opacity=".2" stroke-linecap="round"/>
</svg>
